<?xml version="1.0" encoding="UTF-8"?>
<svg xmlns="http://www.w3.org/2000/svg" width="112" height="26" viewBox="0 0 112 26" fill="none">
  <path d="M8.66989 12.3965C6.7594 12.6588 6.00044 14.377 6.3014 16.5936C6.6678 19.2561 7.8455 20.7119 10.057 20.4234C11.9936 20.1611 12.7264 18.4429 12.4254 16.2526C12.0721 13.5507 10.8552 12.0949 8.66989 12.3965ZM82.0797 11.4653C80.444 11.4653 79.3187 12.8031 79.2402 14.3508L79.214 14.7967H80.7188C83.8986 14.7967 84.6314 14.4426 84.6314 13.4851C84.6314 12.1342 83.6369 11.4653 82.0797 11.4653ZM111.993 21.6694L111.98 14.5737C111.98 12.5539 111.182 9.34054 109.075 7.85846C108.146 7.21579 107.008 6.79608 105.974 6.61246C104.574 6.36326 103.409 6.4813 103.409 6.4813C103.409 5.91733 103.213 4.48771 102.402 3.59583C101.42 2.53346 99.7452 2.13998 98.8684 2.13998C98.8684 2.13998 97.115 2.03506 96.3168 2.79577C95.4662 3.59583 95.5709 5.23531 95.5709 5.23531V6.86166C94.7072 6.57311 93.752 6.40261 92.7182 6.40261C90.7423 6.40261 88.8711 7.13709 87.3401 8.18635C86.1886 7.12398 84.5529 6.40261 82.3676 6.40261C80.7188 6.40261 79.0962 6.88789 77.6437 7.68796C77.4605 7.53057 77.2773 7.38629 77.081 7.25513C76.2305 6.67804 74.9088 6.53377 74.2022 6.53377C73.6657 6.53377 73.1161 6.65181 72.5927 6.84855C72.5927 6.52065 72.5927 6.3108 72.5927 6.3108C72.5927 4.97299 71.8599 1.89078 67.7641 1.89078C65.8013 1.89078 63.4983 2.71708 62.1635 4.19916C61.1167 5.36646 60.6064 6.90101 60.397 8.04208C58.9576 7.04528 57.2041 6.40261 55.2282 6.40261C53.2261 6.40261 51.3941 7.0584 49.837 8.09454C48.8032 7.16332 46.8796 6.33703 44.8121 6.33703C43.3596 6.33703 40.808 6.92724 39.3816 8.02897C37.4188 9.55039 36.7907 11.885 36.7907 13.354C36.7907 14.6 37.144 15.8722 38.0731 16.7641C37.8375 17.0133 37.5627 17.4461 37.4188 17.9576C37.144 18.9675 37.1571 20.1742 37.1571 20.1742C37.1571 20.7381 37.5104 22.2989 38.5049 23.1908C39.9443 24.4893 42.339 25.0926 43.8176 25.0926C45.5318 25.0926 47.9527 24.5155 49.5883 23.322C51.1455 24.3712 53.0168 25.0532 55.0712 25.0532C57.3481 25.0532 59.324 24.2269 60.8942 22.9678C61.771 23.9122 63.1188 24.7516 64.532 24.7516C65.4218 24.7516 66.2724 24.7909 66.8743 24.4106C67.3454 24.1089 67.6987 23.6498 67.9473 23.2433C68.8372 24.0958 70.3027 24.7647 71.6767 24.7647C72.7366 24.7647 73.8228 24.5548 74.3462 23.8728C74.8827 23.1777 74.8303 21.9973 74.8303 21.9973L74.8172 20.7381C75.3668 21.5644 76.1127 22.4957 77.0287 23.2695C78.5728 24.5548 80.9544 25.0664 82.3938 25.0664C84.2257 25.0664 86.0315 24.5548 87.5626 23.8335C88.9627 24.5417 90.5853 25.0401 92.1687 25.0401C93.6735 25.0401 95.44 24.5286 97.0888 23.7417C97.9786 24.3056 98.9862 24.7122 99.6798 24.7122C101.237 24.7122 101.787 25.0008 102.716 24.2138C103.396 23.6367 103.396 21.9054 103.396 21.9054V14.7442C103.396 14.7442 103.357 13.8655 103.789 13.8655C104.22 13.8655 104.155 14.7311 104.155 14.7311V20.266C104.155 21.0398 104.482 22.7186 105.49 23.6892C106.38 24.5417 107.937 24.7516 108.591 24.7516C108.591 24.7516 110.41 24.9745 111.234 24.2138C112.124 23.4269 111.993 21.6694 111.993 21.6694ZM55.346 22.8236C52.3886 22.8236 50.3473 21.1054 49.4575 18.7839C49.222 21.3284 47.246 22.8236 43.8438 22.8236C41.3575 22.8236 39.5125 21.5382 39.5125 20.1611V18.6265H39.6433C40.3761 19.3085 42.1034 19.9119 43.6999 19.9119C45.3486 19.9119 46.1599 19.4397 46.1599 18.4298C46.1599 17.6559 45.6889 17.2756 43.3465 16.9477C40.4939 16.5411 39.1068 15.4131 39.1068 13.354C39.1068 10.8095 41.3837 8.65852 44.8514 8.65852C47.9134 8.65852 49.1696 10.2455 49.1696 11.544V12.8293H49.0388C48.3321 12.1211 46.788 11.5702 45.1785 11.5702C43.1241 11.5702 42.4698 12.1998 42.4698 13.0785C42.4698 13.7606 42.8755 14.036 45.1785 14.4163C47.0236 14.718 48.306 15.3476 48.9733 16.3706C48.9733 16.2526 48.9602 16.1345 48.9602 16.0034C48.9602 11.9375 51.2895 8.65852 55.66 8.65852C59.7165 8.65852 62.0589 11.9243 62.0589 15.5181C62.0458 19.584 59.7035 22.8236 55.346 22.8236ZM91.9593 22.8236C89.473 22.8236 87.628 21.5382 87.628 20.1611V18.6265H87.7588C88.4916 19.3085 90.2189 19.9119 91.8154 19.9119C93.4641 19.9119 94.2754 19.4397 94.2754 18.4298C94.2754 17.6559 93.8044 17.2756 91.462 16.9477C89.4992 16.6723 88.243 16.0558 87.6411 15.0328C87.0915 16.646 85.1679 17.1969 81.4647 17.1969H79.2532C79.5019 18.9019 81.059 19.9905 83.035 19.9905C84.4351 19.9905 86.097 19.7151 87.17 18.7052H87.3008V19.7545C87.3008 21.4857 86.1231 22.8236 82.4069 22.8236C79.0439 22.8236 75.7594 20.1611 75.7594 16.0165C75.7594 14.5213 76.0604 13.2228 76.5969 12.1342C76.1651 11.9768 75.6416 11.8457 74.935 11.8457C73.4302 11.8457 72.6058 12.6719 72.6058 14.7311V22.5219H71.6767C70.1719 22.5219 69.2166 21.7743 69.2166 20.3578V14.1278C69.2166 13.6032 69.269 13.0785 69.3868 12.5801C68.9288 13.1572 68.1044 13.472 67.3454 13.472H65.8929V22.5219H64.5451C63.4721 22.5219 62.5168 21.6956 62.5168 20.5152V9.15692C62.5168 7.24202 63.8516 4.18604 67.7772 4.18604C69.2297 4.18604 70.3551 4.98611 70.3551 6.32392V7.45187H70.2504C69.727 7.28137 69.125 7.15021 68.3007 7.15021C66.9267 7.15021 65.8929 7.62238 65.8929 9.43235V10.639H69.7531V11.4915C70.4467 9.94387 71.873 8.82903 74.2153 8.82903C76.2959 8.82903 77.0287 10.0094 77.0287 11.0456V11.4128C78.1933 9.65532 80.1038 8.65852 82.3938 8.65852C84.5921 8.65852 86.6727 9.89141 87.471 11.9768C88.1383 10.075 90.1666 8.65852 92.98 8.65852C96.042 8.65852 97.2982 10.2455 97.2982 11.544V12.8293H97.1673C96.4607 12.1211 94.9166 11.5702 93.3071 11.5702C91.2527 11.5702 90.5984 12.1998 90.5984 13.0785C90.5984 13.7606 91.004 14.036 93.3071 14.4163C96.1205 14.8623 97.6253 16.0952 97.6253 18.2593C97.5992 21.1054 95.584 22.8236 91.9593 22.8236ZM109.729 22.5219H108.63C107.23 22.5219 106.353 21.7218 106.353 20.266V14.7311C106.353 12.5146 105.15 11.6358 103.671 11.6358C102.624 11.6358 101.237 12.4359 101.237 14.8229V22.5088H100.138C98.5544 22.5088 97.8347 21.63 97.8347 20.2529V4.42213H98.8815C100.491 4.42213 101.263 5.32712 101.263 6.58623C101.263 6.58623 101.263 9.24873 101.263 10.4554C101.76 9.65532 102.912 8.64541 104.194 8.64541C107.675 8.64541 109.729 10.7308 109.729 14.5737V22.5219ZM35.6653 14.6655C35.6784 14.6393 35.6784 14.6 35.6915 14.5606C35.7438 14.2852 35.6784 13.7868 35.6784 13.7868L34.7363 4.69756C34.6708 4.09423 34.2128 2.25803 33.1398 1.45796C31.8836 0.526744 29.96 0.657902 29.3189 0.749713C29.3189 0.749713 27.7486 0.959564 27.1074 1.62847C26.3615 2.4023 26.5578 3.66141 26.5578 3.66141L26.9765 6.19276C26.8457 6.11406 25.4325 5.34023 24.0454 5.15661C22.4489 4.94676 20.8918 5.47139 20.8918 5.47139C20.8918 5.47139 20.8525 5.22219 20.8263 5.15661C20.6301 4.36966 20.1721 3.08432 19.2692 2.42853C18.1176 1.58912 16.2857 1.72028 15.4744 1.82521C15.4744 1.82521 13.9826 1.96948 13.3676 2.62527C12.661 3.38598 12.8311 4.67133 12.8311 4.67133L13.3283 7.96339C11.8889 7.16332 10.1486 6.8092 8.18572 7.07151C2.46734 7.84534 -0.00582261 12.5408 0.713882 17.8789C1.35507 22.5875 5.26765 26.3648 10.5804 25.6303C13.0666 25.2893 14.8855 24.2269 16.0894 22.7055C16.7698 23.7023 18.8243 24.1482 20.1721 23.9646C20.1721 23.9646 21.6769 24.004 22.449 23.1646C22.8677 22.7055 22.9855 21.853 23.0247 21.3284C23.0378 21.1579 22.9985 20.6463 22.92 20.0168C22.6583 18.1019 22.0302 13.6294 22.0302 13.6294C22.0302 13.6294 21.7423 12.6982 22.1742 12.6326C22.5929 12.567 22.6714 13.6032 22.6714 13.6032L23.6528 20.0037C23.7575 20.7381 24.4772 21.8005 25.5502 22.3514C27.657 23.4269 30.2348 22.4957 30.1302 22.5481C30.6274 22.3383 31.0461 21.853 31.0461 21.853V21.8399C31.7528 22.1415 32.5379 22.2727 33.3492 22.1678C35.7046 21.853 37.3926 19.6233 37.0655 17.2625C36.9085 16.2526 36.3981 15.3345 35.6653 14.6655ZM10.1747 23.4531C6.15746 24.004 3.4095 21.1054 2.92534 17.551C2.37574 13.5245 4.24697 9.9701 8.5652 9.37989C12.5825 8.82903 15.3304 11.7538 15.8146 15.3082C16.3642 19.3348 14.4929 22.8629 10.1747 23.4531ZM28.2197 20.6857C26.8326 20.8693 25.8512 20.2004 25.6549 18.7577L24.909 13.2753C24.6081 11.0849 23.2995 10.3767 21.8339 10.5734C20.7871 10.7177 19.5309 11.7014 19.858 14.0622L20.8918 21.6825L19.7926 21.8268C18.2223 22.0366 17.3848 21.2628 17.2016 19.8987L15.0818 4.22539L16.1286 4.08112C17.712 3.87127 18.6149 4.65821 18.7719 5.90421C18.7719 5.90421 19.1252 8.54048 19.2953 9.73402C19.6879 8.86838 20.6955 7.71419 21.9517 7.54368C25.4063 7.07151 27.7224 8.86838 28.2328 12.6719L29.2927 20.5414L28.2197 20.6857ZM28.7169 3.25482L30.2348 3.04497C31.4256 2.88758 32.3024 3.54337 32.4594 4.86806L33.4408 14.0098L32.4201 14.154C31.2293 14.3114 30.405 13.6425 30.1956 12.3309L28.7169 3.25482ZM32.9305 20.043C31.7658 20.2004 30.6667 19.361 30.5096 18.1937C30.3526 17.0264 31.1901 15.9247 32.3547 15.7673C33.5193 15.6099 34.6185 16.4493 34.7755 17.6166C34.9456 18.7839 34.1082 19.8856 32.9305 20.043ZM55.346 11.662C53.4093 11.662 52.441 13.2753 52.441 15.505C52.441 18.1937 53.4224 19.8069 55.6469 19.8069C57.5967 19.8069 58.5519 18.1937 58.5519 15.9902C58.5519 13.2753 57.5574 11.662 55.346 11.662Z" fill="url(#paint0_linear_1345_1000)"></path>
  <defs>
    <linearGradient id="paint0_linear_1345_1000" x1="0.606672" y1="13.2228" x2="111.996" y2="13.2228" gradientUnits="userSpaceOnUse">
      <stop stop-color="#F49E00"></stop>
      <stop offset="0.3" stop-color="#E4261B"></stop>
      <stop offset="0.6" stop-color="#9E1AAA"></stop>
      <stop offset="0.85" stop-color="#5813A9"></stop>
      <stop offset="1" stop-color="#4C3FFC"></stop>
    </linearGradient>
  </defs>
</svg>
